<?xml version="1.0" encoding="UTF-8" standalone="no"?>
<!-- Created with Inkscape (http://www.inkscape.org/) -->

<svg
   xmlns:dc="http://purl.org/dc/elements/1.1/"
   xmlns:cc="http://creativecommons.org/ns#"
   xmlns:rdf="http://www.w3.org/1999/02/22-rdf-syntax-ns#"
   xmlns:svg="http://www.w3.org/2000/svg"
   xmlns="http://www.w3.org/2000/svg"
   xmlns:sodipodi="http://sodipodi.sourceforge.net/DTD/sodipodi-0.dtd"
   xmlns:inkscape="http://www.inkscape.org/namespaces/inkscape"
   width="512"
   height="512"
   viewBox="0 0 511.99999 511.99999"
   id="svg2"
   version="1.1"
   inkscape:version="0.91 r13725"
   inkscape:export-filename="/Users/jay/Documents/Art/Projects/linabelina/repos/linabelina-assets/Assets/Folliage/low-poly-curly-grass.png"
   inkscape:export-xdpi="90"
   inkscape:export-ydpi="90"
   sodipodi:docname="broad-leaf-veg.svg">
  <defs
     id="defs4" />
  <sodipodi:namedview
     id="base"
     pagecolor="#ffffff"
     bordercolor="#666666"
     borderopacity="1.0"
     inkscape:pageopacity="0.0"
     inkscape:pageshadow="2"
     inkscape:zoom="0.70155458"
     inkscape:cx="430.20944"
     inkscape:cy="153.37507"
     inkscape:document-units="px"
     inkscape:current-layer="g4222"
     showgrid="false"
     showguides="true"
     inkscape:guide-bbox="true"
     inkscape:snap-to-guides="true"
     units="px"
     inkscape:window-width="1414"
     inkscape:window-height="855"
     inkscape:window-x="26"
     inkscape:window-y="1"
     inkscape:window-maximized="1">
    <sodipodi:guide
       position="349.58079,419.60386"
       orientation="0,1"
       id="guide4165" />
  </sodipodi:namedview>
  <metadata
     id="metadata7">
    <rdf:RDF>
      <cc:Work
         rdf:about="">
        <dc:format>image/svg+xml</dc:format>
        <dc:type
           rdf:resource="http://purl.org/dc/dcmitype/StillImage" />
        <dc:title></dc:title>
      </cc:Work>
    </rdf:RDF>
  </metadata>
  <g
     inkscape:label="Layer 1"
     inkscape:groupmode="layer"
     id="layer1"
     transform="translate(0,-540.36219)">
    <g
       id="g4215"
       transform="matrix(1.8041174,0,0,1.8041174,-10.174249,-848.51581)">
      <path
         transform="translate(0,540.36219)"
         id="path4213"
         d="m 140.00391,356.99609 c -3.43403,-0.10163 -6.6109,-0.17651 -10.29102,-0.36523 -27.79541,-1.4254 -6.41556,8.55304 -12.11719,17.10547 -5.70162,8.55244 -11.40308,-4.2772 -14.2539,-18.53125 -2.85081,-14.25406 26.36962,-11.40231 35.63476,-33.4961 8.35188,-19.91601 -3.6986,-33.96539 -29.62109,-40.21093 0.9097,1.98314 1.86683,3.8741 2.69531,5.94531 1.58131,3.95327 2.96144,8.02853 3.94141,12.08203 0.48998,2.02675 0.88005,4.04741 1.14453,6.04492 0.26448,1.99752 0.40371,3.97221 0.39258,5.9043 -0.0111,1.93209 -0.1729,3.82187 -0.50977,5.65234 -0.33686,1.83048 -0.84979,3.60226 -1.5625,5.29493 -0.7127,1.69267 -1.70323,3.54089 -2.88086,5.49804 -1.17763,1.95715 -2.54118,4.02147 -4,6.14844 -2.91763,4.25395 -6.2144,8.75384 -9.154295,13.11914 -1.46995,2.18265 -2.850879,4.33188 -4.050781,6.40039 -1.199902,2.06851 -2.218733,4.05631 -2.964844,5.91602 -0.746111,1.85971 -1.219549,3.59218 -1.328125,5.14843 -0.05429,0.77813 -0.0165,1.5108 0.123047,2.19532 0.139548,0.68451 0.38193,1.31936 0.738281,1.89843 1.425406,2.31629 2.583258,5.07949 3.763672,7.83008 0.590207,1.3753 1.184731,2.74789 1.822266,4.06055 0.637535,1.31265 1.316972,2.5653 2.074218,3.70117 0.757251,1.13587 1.593631,2.1531 2.542971,2.99805 0.94934,0.84494 2.01274,1.51716 3.22656,1.95703 1.21382,0.43987 2.57822,0.6477 4.12891,0.56836 1.55068,-0.0794 3.28811,-0.4455 5.24804,-1.15821 1.95994,-0.7127 3.75117,-1.73716 5.40625,-2.99414 1.65509,-1.25697 3.17333,-2.74806 4.58204,-4.39062 1.4087,-1.64256 2.7089,-3.43719 3.92968,-5.30664 1.22078,-1.86945 2.3618,-3.81234 3.45313,-5.75 2.18265,-3.87532 4.16407,-7.72976 6.17969,-10.92578 0.55876,-0.88601 1.13814,-1.56835 1.70703,-2.33985 z"
         style="color:#000000;clip-rule:nonzero;display:inline;overflow:visible;visibility:visible;opacity:1;isolation:auto;mix-blend-mode:normal;color-interpolation:sRGB;color-interpolation-filters:linearRGB;solid-color:#000000;solid-opacity:1;fill:#759025;fill-opacity:1;fill-rule:nonzero;stroke:none;stroke-width:0.5;stroke-linecap:round;stroke-linejoin:miter;stroke-miterlimit:10;stroke-dasharray:none;stroke-dashoffset:0;stroke-opacity:1;color-rendering:auto;image-rendering:auto;shape-rendering:auto;text-rendering:auto;enable-background:accumulate"
         inkscape:connector-curvature="0" />
      <path
         transform="translate(0,540.36219)"
         id="path4211"
         d="m 118.91016,437.01758 c 8.14646,0.40286 10.08984,7.98828 10.08984,7.98828 0,0 8.55247,-0.71327 52.02734,-2.13867 35.86541,-1.17592 18.39627,-3.15885 2.77149,-24.51172 -0.20061,0.10109 -0.3487,0.24933 -0.55664,0.34375 -1.30291,0.5916 -2.74994,1.04952 -4.35352,1.36133 -3.20716,0.62361 -6.3245,1.10321 -9.34375,1.4707 -3.01924,0.36749 -5.94012,0.62456 -8.75195,0.80273 -5.62367,0.35636 -10.81312,0.40039 -15.49024,0.4004 -4.67711,0 -8.84331,-0.0454 -12.41796,0.13281 -1.78733,0.0891 -3.42573,0.23489 -4.90821,0.46875 -1.48248,0.23385 -2.80865,0.55651 -3.96679,1.00195 -0.57908,0.22272 -1.08616,0.51474 -1.53125,0.87109 -0.4451,0.35636 -0.82747,0.77702 -1.16016,1.25586 -0.66538,0.9577 -1.12744,2.14844 -1.47266,3.5293 -0.47535,1.90142 -0.67827,4.52043 -0.93554,7.02344 z"
         style="color:#000000;clip-rule:nonzero;display:inline;overflow:visible;visibility:visible;opacity:1;isolation:auto;mix-blend-mode:normal;color-interpolation:sRGB;color-interpolation-filters:linearRGB;solid-color:#000000;solid-opacity:1;fill:#8cad2c;fill-opacity:1;fill-rule:nonzero;stroke:none;stroke-width:0.5;stroke-linecap:round;stroke-linejoin:miter;stroke-miterlimit:10;stroke-dasharray:none;stroke-dashoffset:0;stroke-opacity:1;color-rendering:auto;image-rendering:auto;shape-rendering:auto;text-rendering:auto;enable-background:accumulate"
         inkscape:connector-curvature="0" />
      <path
         transform="translate(0,540.36219)"
         id="path4209"
         d="m 17.197266,370.16016 c -0.901234,2.46973 -1.733007,4.82568 -2.94336,7.85156 -7.1270292,17.81757 10.690803,24.23171 30.646485,36.34766 19.955682,12.11594 27.082254,-11.4031 42.761718,-14.25391 15.679461,-2.85081 14.254731,12.11703 9.978516,26.37109 -4.276217,14.25406 -10.690164,-4.27809 -35.634766,-7.1289 -8.993684,-1.02785 -13.029904,0.48065 -14.173828,4.02148 -0.936173,2.89777 0.203253,7.30751 2.113281,12.72852 2.08091,0.96724 3.824281,1.88701 6.357422,2.84961 2.227197,0.84633 4.589643,1.64799 7.011719,2.33007 2.422077,0.68208 4.904765,1.2458 7.376953,1.61328 2.472189,0.36749 4.933015,0.53885 7.310547,0.44141 1.188766,-0.0487 2.356182,-0.16428 3.494141,-0.35742 1.137958,-0.19314 2.247352,-0.46396 3.316406,-0.82031 2.138109,-0.71271 4.175307,-1.53663 6.097656,-2.45118 1.922349,-0.91454 3.728332,-1.91951 5.404297,-2.99414 1.675966,-1.07462 3.222136,-2.21916 4.621097,-3.4121 1.39895,-1.19295 2.65086,-2.43363 3.74218,-3.70313 1.09133,-1.2695 2.02232,-2.56679 2.77539,-3.87109 0.75308,-1.30431 1.3287,-2.61477 1.7129,-3.91211 0.38419,-1.29735 0.57585,-2.58146 0.56054,-3.83008 -0.0153,-1.24862 -0.23815,-2.46295 -0.68359,-3.62109 -0.44544,-1.15815 -0.80091,-2.47104 -1.11133,-3.87696 -0.31042,-1.40592 -0.57424,-2.90406 -0.83594,-4.42969 -0.52339,-3.05126 -1.03647,-6.21483 -1.88281,-8.97656 -0.42317,-1.38086 -0.92914,-2.66096 -1.5625,-3.77734 -0.63336,-1.11638 -1.39436,-2.06913 -2.32422,-2.79297 -0.92985,-0.72384 -2.029141,-1.21864 -3.341795,-1.42188 -1.312654,-0.20323 -2.839337,-0.1134 -4.621094,0.33204 -3.563514,0.89087 -8.328178,1.86967 -13.628906,2.73828 -5.300728,0.8686 -11.136267,1.62682 -16.837891,2.07226 -2.850811,0.22272 -5.668664,0.36645 -8.36914,0.40821 -2.700476,0.0418 -5.284869,-0.0197 -7.667969,-0.20899 -2.3831,-0.18931 -4.564205,-0.50607 -6.462891,-0.97656 -1.898685,-0.4705 -3.514488,-1.0947 -4.761718,-1.89649 -1.24723,-0.80179 -2.7047,-2.01484 -4.292969,-3.54882 -1.58827,-1.53399 -3.307212,-3.38828 -5.072266,-5.47071 -1.765053,-2.08243 -3.577887,-4.39271 -5.355469,-6.83984 -1.283935,-1.76755 -2.500119,-3.65794 -3.716796,-5.5332 z"
         style="color:#000000;clip-rule:nonzero;display:inline;overflow:visible;visibility:visible;opacity:1;isolation:auto;mix-blend-mode:normal;color-interpolation:sRGB;color-interpolation-filters:linearRGB;solid-color:#000000;solid-opacity:1;fill:#8cad2c;fill-opacity:1;fill-rule:nonzero;stroke:none;stroke-width:0.5;stroke-linecap:round;stroke-linejoin:miter;stroke-miterlimit:10;stroke-dasharray:none;stroke-dashoffset:0;stroke-opacity:1;color-rendering:auto;image-rendering:auto;shape-rendering:auto;text-rendering:auto;enable-background:accumulate"
         inkscape:connector-curvature="0" />
      <path
         transform="translate(0,540.36219)"
         id="path4207"
         d="m 48.285156,247.31055 c -5.521227,7.26835 -9.925577,20.91476 -15.5,35.19922 -3.245926,8.31768 -2.430963,14.22281 0.451172,18.93945 -1.637822,-0.99366 -3.419449,-1.87289 -5.441406,-2.54688 -15.357174,-5.11905 -12.956721,11.59358 -11.779297,27.95704 0.826774,-0.79517 1.655126,-1.59866 2.515625,-2.21094 1.158142,-0.82407 2.337164,-1.46519 3.517578,-1.87305 1.180414,-0.40785 2.361389,-0.58235 3.519531,-0.47656 1.158143,0.10579 2.29344,0.4921 3.384766,1.20898 1.091326,0.71688 2.139174,1.76405 3.119141,3.18946 1.959933,2.85081 4.098187,5.52431 6.347656,7.92968 2.249468,2.40538 4.610253,4.54247 7.015625,6.32422 1.202686,0.89088 2.416206,1.69297 3.632812,2.39453 1.216607,0.70157 2.434616,1.30299 3.648438,1.79297 1.213822,0.48998 2.422853,0.86887 3.617187,1.125 1.194335,0.25613 2.375061,0.38867 3.533204,0.38867 2.316284,0 4.809849,0.40143 7.259765,0.86914 2.449916,0.46772 4.856032,1.00227 6.994141,1.26954 1.069054,0.13363 2.070933,0.19996 2.978515,0.1582 0.907583,-0.0418 1.721679,-0.19152 2.41211,-0.49219 0.690431,-0.30067 1.258182,-0.75143 1.675781,-1.39453 0.417599,-0.6431 0.68435,-1.47782 0.773438,-2.54688 0.178175,-2.1381 0.04488,-5.12381 -0.478516,-8.60937 -0.261696,-1.74278 -0.621571,-3.61036 -1.087891,-5.56055 -0.466319,-1.95019 -1.040038,-3.98339 -1.730469,-6.05468 -0.69043,-2.0713 -1.49761,-4.18102 -2.43164,-6.28711 -0.934031,-2.1061 -1.994288,-4.20713 -3.191406,-6.26172 -1.197119,-2.05459 -2.530072,-4.06174 -4.009766,-5.97852 -1.479694,-1.91678 -3.106915,-3.74287 -4.888672,-5.43555 -0.890879,-0.84633 -1.765285,-1.83519 -2.617187,-2.94531 -0.851903,-1.11012 -1.680631,-2.34224 -2.482422,-3.67578 -1.603582,-2.66707 -3.095323,-5.74007 -4.431641,-9.05859 -1.336318,-3.31853 -2.51808,-6.88226 -3.498047,-10.5293 -0.979966,-3.64703 -1.758441,-7.37865 -2.292969,-11.03125 -0.534527,-3.6526 -0.824218,-7.22727 -0.824218,-10.5625 0,-1.66761 0.07232,-3.27502 0.222656,-4.80273 0.01434,-0.14569 0.05065,-0.2679 0.06641,-0.41211 z m -5.849609,63.14257 c 8.934223,6.19881 20.260541,11.19397 23.845703,21.23243 7.12703,19.95568 -3.562612,7.12684 -11.402344,-0.71289 -4.696503,-4.69651 -7.395714,-13.20624 -12.443359,-20.51954 z"
         style="color:#000000;clip-rule:nonzero;display:inline;overflow:visible;visibility:visible;opacity:1;isolation:auto;mix-blend-mode:normal;color-interpolation:sRGB;color-interpolation-filters:linearRGB;solid-color:#000000;solid-opacity:1;fill:#8cad2c;fill-opacity:1;fill-rule:nonzero;stroke:none;stroke-width:0.5;stroke-linecap:round;stroke-linejoin:miter;stroke-miterlimit:10;stroke-dasharray:none;stroke-dashoffset:0;stroke-opacity:1;color-rendering:auto;image-rendering:auto;shape-rendering:auto;text-rendering:auto;enable-background:accumulate"
         inkscape:connector-curvature="0" />
      <path
         transform="translate(0,540.36219)"
         id="path4188"
         d="m 48.285156,247.31055 c -0.01576,0.14421 -0.05207,0.26642 -0.06641,0.41211 -0.150336,1.52771 -0.222656,3.13512 -0.222656,4.80273 0,3.33523 0.289691,6.9099 0.824218,10.5625 0.534528,3.6526 1.313003,7.38422 2.292969,11.03125 0.979967,3.64704 2.161729,7.21077 3.498047,10.5293 1.336318,3.31852 2.828059,6.39152 4.431641,9.05859 0.801791,1.33354 1.630519,2.56566 2.482422,3.67578 0.851902,1.11012 1.726308,2.09898 2.617187,2.94531 1.781757,1.69268 3.408978,3.51877 4.888672,5.43555 1.479694,1.91678 2.812647,3.92393 4.009766,5.97852 1.197118,2.05459 2.257375,4.15562 3.191406,6.26172 0.93403,2.10609 1.74121,4.21581 2.43164,6.28711 0.690431,2.07129 1.26415,4.10449 1.730469,6.05468 0.46632,1.95019 0.826195,3.81777 1.087891,5.56055 0.523391,3.48556 0.656691,6.47127 0.478516,8.60937 -0.08909,1.06906 -0.355839,1.90378 -0.773438,2.54688 -0.417599,0.6431 -0.98535,1.09386 -1.675781,1.39453 -0.690431,0.30067 -1.504527,0.45043 -2.41211,0.49219 -0.907582,0.0418 -1.909461,-0.0246 -2.978515,-0.1582 -2.138109,-0.26727 -4.544225,-0.80182 -6.994141,-1.26954 -2.449916,-0.46771 -4.943481,-0.86914 -7.259765,-0.86914 -1.158143,0 -2.338869,-0.13254 -3.533204,-0.38867 -1.194334,-0.25613 -2.403365,-0.63502 -3.617187,-1.125 -1.213822,-0.48998 -2.431831,-1.0914 -3.648438,-1.79297 -1.216606,-0.70156 -2.430126,-1.50365 -3.632812,-2.39453 -2.405372,-1.78175 -4.766157,-3.91884 -7.015625,-6.32422 -2.249469,-2.40537 -4.387723,-5.07887 -6.347656,-7.92968 -0.979967,-1.42541 -2.027815,-2.47258 -3.119141,-3.18946 -1.091326,-0.71688 -2.226623,-1.10319 -3.384766,-1.20898 -1.158142,-0.10579 -2.339117,0.0687 -3.519531,0.47656 -1.180414,0.40786 -2.359436,1.04898 -3.517578,1.87305 -0.860499,0.61228 -1.688851,1.41577 -2.515625,2.21094 0.133995,1.86221 0.304132,3.71854 0.376953,5.53906 0.712703,17.81758 12.827409,17.81716 24.94336,20.66797 12.115949,2.85081 14.255443,-4.27603 34.923828,0.71289 20.668385,4.98892 5.701811,12.11666 0.71289,24.94531 -4.98892,12.82866 -14.968333,-3.56374 -35.636718,-15.67969 -17.158363,-10.05835 -19.733094,-4.95778 -24.138672,7.11524 1.216677,1.87526 2.432861,3.76565 3.716796,5.5332 1.777582,2.44713 3.590416,4.75741 5.355469,6.83984 1.765054,2.08243 3.483996,3.93672 5.072266,5.47071 1.588269,1.53398 3.045739,2.74703 4.292969,3.54882 1.24723,0.80179 2.863033,1.42599 4.761718,1.89649 1.898686,0.47049 4.079791,0.78725 6.462891,0.97656 2.3831,0.18931 4.967493,0.25075 7.667969,0.20899 2.700476,-0.0418 5.518329,-0.18549 8.36914,-0.40821 5.701624,-0.44544 11.537163,-1.20366 16.837891,-2.07226 5.300728,-0.86861 10.065392,-1.84741 13.628906,-2.73828 1.781757,-0.44544 3.30844,-0.53527 4.621094,-0.33204 1.312654,0.20324 2.411949,0.69804 3.341799,1.42188 0.92986,0.72384 1.69086,1.67659 2.32422,2.79297 0.63336,1.11638 1.13933,2.39648 1.5625,3.77734 0.84634,2.76173 1.35942,5.9253 1.88281,8.97656 0.2617,1.52563 0.52552,3.02377 0.83594,4.42969 0.31042,1.40592 0.66589,2.71881 1.11133,3.87696 0.44544,1.15814 0.66828,2.37247 0.68359,3.62109 0.0153,1.24862 -0.17635,2.53273 -0.56054,3.83008 -0.3842,1.29734 -0.95982,2.6078 -1.7129,3.91211 -0.75307,1.3043 -1.68406,2.60159 -2.77539,3.87109 -1.09132,1.2695 -2.34323,2.51018 -3.74218,3.70313 -1.398965,1.19294 -2.945135,2.33748 -4.621101,3.4121 -1.675965,1.07463 -3.481948,2.0796 -5.404297,2.99414 -1.922349,0.91455 -3.959547,1.73847 -6.097656,2.45118 -1.069054,0.35635 -2.178448,0.62717 -3.316406,0.82031 -1.137959,0.19314 -2.305375,0.3087 -3.494141,0.35742 -2.377532,0.0974 -4.838358,-0.0739 -7.310547,-0.44141 -2.472188,-0.36748 -4.954876,-0.9312 -7.376953,-1.61328 -2.422076,-0.68208 -4.784522,-1.48374 -7.011719,-2.33007 -2.533141,-0.9626 -4.276512,-1.88237 -6.357422,-2.84961 2.229291,6.32712 5.550747,14.08062 8.496094,23.16211 8.552435,26.37003 28.508969,-7.83876 47.751958,-18.5293 5.43477,-3.01932 9.51044,-3.87145 12.7168,-3.71289 0.25727,-2.50301 0.46019,-5.12202 0.93554,-7.02344 0.34522,-1.38086 0.80728,-2.5716 1.47266,-3.5293 0.33269,-0.47884 0.71506,-0.8995 1.16016,-1.25586 0.44509,-0.35635 0.95217,-0.64837 1.53125,-0.87109 1.15814,-0.44544 2.48431,-0.7681 3.96679,-1.00195 1.48248,-0.23386 3.12088,-0.37966 4.90821,-0.46875 3.57465,-0.17818 7.74085,-0.13281 12.41796,-0.13281 4.67712,-10e-6 9.86657,-0.044 15.49024,-0.4004 2.81183,-0.17817 5.73271,-0.43524 8.75195,-0.80273 3.01925,-0.36749 6.13659,-0.84709 9.34375,-1.4707 1.60358,-0.31181 3.05061,-0.76973 4.35352,-1.36133 0.20794,-0.0944 0.35603,-0.24266 0.55664,-0.34375 -3.31507,-4.53038 -6.56785,-9.62457 -9.1875,-16.11133 -14.96676,-37.06055 -14.25236,1.42589 -30.64453,9.26563 -16.39217,7.83973 -12.11693,-2.13991 -18.53125,-14.25586 -6.41433,-12.11595 29.22017,-2.13807 42.04883,-22.09375 11.13013,-17.31355 -4.97778,-17.4981 -27.48047,-18.16407 -0.56889,0.7715 -1.14827,1.45384 -1.70703,2.33985 -2.01562,3.19602 -3.99704,7.05046 -6.17969,10.92578 -1.09133,1.93766 -2.23235,3.88055 -3.45313,5.75 -1.22078,1.86945 -2.52098,3.66408 -3.92968,5.30664 -1.40871,1.64256 -2.92695,3.13365 -4.58204,4.39062 -1.65508,1.25698 -3.44631,2.28144 -5.40625,2.99414 -1.95993,0.71271 -3.69736,1.07886 -5.24804,1.15821 -1.55069,0.0793 -2.91509,-0.12849 -4.12891,-0.56836 -1.21382,-0.43987 -2.27722,-1.11209 -3.22656,-1.95703 -0.94934,-0.84495 -1.78572,-1.86218 -2.542975,-2.99805 -0.757246,-1.13587 -1.436683,-2.38852 -2.074218,-3.70117 -0.637535,-1.31266 -1.232059,-2.68525 -1.822266,-4.06055 -1.180414,-2.75059 -2.338266,-5.51379 -3.763672,-7.83008 -0.356351,-0.57907 -0.598733,-1.21392 -0.738281,-1.89843 -0.139548,-0.68452 -0.177335,-1.41719 -0.123047,-2.19532 0.108576,-1.55625 0.582014,-3.28872 1.328125,-5.14843 0.746111,-1.85971 1.764942,-3.84751 2.964844,-5.91602 1.199902,-2.06851 2.580831,-4.21774 4.050781,-6.40039 2.939899,-4.3653 6.236669,-8.86519 9.154299,-13.11914 1.45882,-2.12697 2.82237,-4.19129 4,-6.14844 1.17763,-1.95715 2.16816,-3.80537 2.88086,-5.49804 0.71271,-1.69267 1.22564,-3.46445 1.5625,-5.29493 0.33687,-1.83047 0.49863,-3.72025 0.50977,-5.65234 0.0111,-1.93209 -0.1281,-3.90678 -0.39258,-5.9043 -0.26448,-1.99751 -0.65455,-4.01817 -1.14453,-6.04492 -0.97997,-4.0535 -2.3601,-8.12876 -3.94141,-12.08203 -0.82848,-2.07121 -1.78561,-3.96217 -2.69531,-5.94531 -2.83457,-0.68294 -5.70395,-1.34809 -8.86524,-1.83985 -6.272026,-0.97565 -9.893695,-0.27678 -11.759765,1.55469 -2.357058,-7.73653 -7.203567,-16.86519 -16.748047,-28.63672 -6.68159,-8.24062 -11.900185,-11.26226 -16.267578,-10.6289 -2.776333,0.40262 -5.185995,2.40959 -7.429688,5.36328 z m 42.164063,49.60351 c 4.93332,11.07295 13.605471,24.90133 13.605471,34.0586 0,18.53027 -4.276443,10.69046 -15.67969,7.12695 -11.403247,-3.56352 -2.137921,-19.95455 0.712891,-32.7832 0.604421,-2.7199 1.088826,-5.50291 1.361328,-8.40235 z"
         style="color:#000000;clip-rule:nonzero;display:inline;overflow:visible;visibility:visible;opacity:1;isolation:auto;mix-blend-mode:normal;color-interpolation:sRGB;color-interpolation-filters:linearRGB;solid-color:#000000;solid-opacity:1;fill:#add046;fill-opacity:1;fill-rule:nonzero;stroke:none;stroke-width:0.5;stroke-linecap:round;stroke-linejoin:miter;stroke-miterlimit:10;stroke-dasharray:none;stroke-dashoffset:0;stroke-opacity:1;color-rendering:auto;image-rendering:auto;shape-rendering:auto;text-rendering:auto;enable-background:accumulate"
         inkscape:connector-curvature="0" />
    </g>
    <g
       id="g4222"
       transform="matrix(0.51257515,0.35768173,-0.35768173,0.51257515,503.38247,428.55103)">
      <path
         style="color:#000000;clip-rule:nonzero;display:inline;overflow:visible;visibility:visible;opacity:1;isolation:auto;mix-blend-mode:normal;color-interpolation:sRGB;color-interpolation-filters:linearRGB;solid-color:#000000;solid-opacity:1;fill:#759025;fill-opacity:1;fill-rule:nonzero;stroke:none;stroke-width:0.5;stroke-linecap:round;stroke-linejoin:miter;stroke-miterlimit:10;stroke-dasharray:none;stroke-dashoffset:0;stroke-opacity:1;color-rendering:auto;image-rendering:auto;shape-rendering:auto;text-rendering:auto;enable-background:accumulate"
         d="m 308.96068,596.50327 c -6.19539,-0.18335 -11.92684,-0.31844 -18.5662,-0.65891 -50.14619,-2.57158 -11.57443,15.43069 -21.86084,30.86028 -10.28639,15.42961 -20.5725,-7.71657 -25.71571,-33.43255 -5.14319,-25.71601 47.57389,-20.57111 64.2893,-60.4309 15.06777,-35.93083 -6.67271,-61.27756 -53.43993,-72.54525 1.6412,3.57783 3.36798,6.98933 4.86265,10.72605 2.85288,7.13216 5.34279,14.48441 7.11077,21.7974 0.88398,3.65649 1.58772,7.30199 2.06487,10.90573 0.47715,3.60377 0.72834,7.16634 0.70826,10.65206 -0.0201,3.48572 -0.31193,6.8951 -0.91969,10.19749 -0.60773,3.3024 -1.53312,6.4989 -2.81893,9.55267 -1.2858,3.05378 -3.07283,6.38819 -5.19742,9.91911 -2.12457,3.53093 -4.58458,7.25521 -7.21646,11.09251 -5.26375,7.67462 -11.21151,15.79296 -16.51542,23.66847 -2.65196,3.93776 -5.14332,7.81522 -7.30809,11.54705 -2.16476,3.73184 -4.00285,7.31807 -5.34893,10.6732 -1.34606,3.35513 -2.20021,6.48071 -2.39609,9.28837 -0.098,1.40384 -0.0298,2.72567 0.22199,3.96062 0.25177,1.23493 0.68905,2.38028 1.33195,3.42499 2.57159,4.17886 4.6605,9.16399 6.7901,14.12639 1.06481,2.48119 2.1374,4.95751 3.28759,7.3257 1.15018,2.36817 2.37597,4.6281 3.74213,6.67735 1.36617,2.04924 2.8751,3.88445 4.58781,5.40884 1.71273,1.52436 3.63123,2.73712 5.8211,3.53071 2.18988,0.79357 4.65141,1.16852 7.44904,1.02538 2.79761,-0.14325 5.93213,-0.80373 9.46808,-2.08954 3.53596,-1.2858 6.76755,-3.13404 9.75351,-5.40178 2.98598,-2.26772 5.72506,-4.95783 8.26653,-7.9212 2.54147,-2.96337 4.88718,-6.20109 7.08961,-9.5738 2.20243,-3.3727 4.26097,-6.87791 6.22986,-10.37368 3.93775,-6.99153 7.51246,-13.94539 11.14888,-19.71139 1.00808,-1.59847 2.05334,-2.82949 3.07968,-4.22137 z"
         id="path4224"
         inkscape:connector-curvature="0" />
      <path
         style="color:#000000;clip-rule:nonzero;display:inline;overflow:visible;visibility:visible;opacity:1;isolation:auto;mix-blend-mode:normal;color-interpolation:sRGB;color-interpolation-filters:linearRGB;solid-color:#000000;solid-opacity:1;fill:#566a1b;fill-opacity:1;fill-rule:nonzero;stroke:none;stroke-width:0.5;stroke-linecap:round;stroke-linejoin:miter;stroke-miterlimit:10;stroke-dasharray:none;stroke-dashoffset:0;stroke-opacity:1;color-rendering:auto;image-rendering:auto;shape-rendering:auto;text-rendering:auto;enable-background:accumulate"
         d="m 270.90508,740.87145 c 14.69717,0.7268 18.20326,14.41179 18.20326,14.41179 0,0 15.42966,-1.28682 93.86343,-3.85841 64.70542,-2.12149 33.18904,-5.69893 5.0001,-44.22202 -0.36193,0.18238 -0.62911,0.44982 -1.00425,0.62017 -2.3506,1.06731 -4.96122,1.89345 -7.85426,2.45599 -5.7861,1.12507 -11.41014,1.99033 -16.85722,2.65332 -5.44707,0.66299 -10.71667,1.12678 -15.78954,1.44822 -10.14577,0.64291 -19.50815,0.72235 -27.94622,0.72236 -8.43805,0 -15.95437,-0.082 -22.40346,0.23961 -3.22455,0.16074 -6.18042,0.42377 -8.85499,0.84568 -2.67456,0.42189 -5.06713,1.00401 -7.15655,1.80763 -1.04474,0.40182 -1.95956,0.92866 -2.76256,1.57155 -0.80301,0.64292 -1.49285,1.40184 -2.09306,2.26572 -1.20042,1.7278 -2.03403,3.87605 -2.65685,6.36728 -0.85759,3.43038 -1.22369,8.15538 -1.68783,12.67111 z"
         id="path4226"
         inkscape:connector-curvature="0" />
      <path
         style="color:#000000;clip-rule:nonzero;display:inline;overflow:visible;visibility:visible;opacity:1;isolation:auto;mix-blend-mode:normal;color-interpolation:sRGB;color-interpolation-filters:linearRGB;solid-color:#000000;solid-opacity:1;fill:#738e24;fill-opacity:1;fill-rule:nonzero;stroke:none;stroke-width:0.5;stroke-linecap:round;stroke-linejoin:miter;stroke-miterlimit:10;stroke-dasharray:none;stroke-dashoffset:0;stroke-opacity:1;color-rendering:auto;image-rendering:auto;shape-rendering:auto;text-rendering:auto;enable-background:accumulate"
         d="m 87.403072,620.2528 c -1.625933,4.45569 -3.126549,8.7061 -5.310167,14.16514 -12.857998,32.14499 19.287465,43.71686 55.289865,65.57546 36.00239,21.85857 48.85956,-20.57254 77.14716,-25.71574 28.28758,-5.14319 25.7172,21.86055 18.00242,47.57655 -7.71481,25.71599 -19.28632,-7.71818 -64.28931,-12.86138 -16.22566,-1.85436 -23.50748,0.86715 -25.57125,7.25523 -1.68897,5.22791 0.36669,13.18361 3.8126,22.96375 3.75421,1.745 6.89946,3.40438 11.46954,5.14103 4.01812,1.52687 8.28026,2.97316 12.64996,4.20371 4.36972,1.23056 8.84878,2.24757 13.3089,2.91055 4.46012,0.66299 8.89974,0.97215 13.18908,0.79635 2.14467,-0.0878 4.25083,-0.29637 6.30385,-0.64482 2.053,-0.34845 4.05448,-0.83704 5.98318,-1.47994 3.8574,-1.28581 7.53274,-2.77226 11.00088,-4.42221 3.46815,-1.64994 6.72635,-3.46303 9.75,-5.40178 3.02363,-1.93874 5.8131,-4.00362 8.33699,-6.15583 2.52387,-2.15223 4.78247,-4.39056 6.75133,-6.68088 1.96889,-2.29033 3.64851,-4.6308 5.00713,-6.98391 1.35866,-2.35312 2.39714,-4.71735 3.09028,-7.05791 0.69312,-2.34057 1.0389,-4.65725 1.01127,-6.90991 -0.0276,-2.25266 -0.42964,-4.44345 -1.23327,-6.53286 -0.80363,-2.08944 -1.44494,-4.45805 -2.00497,-6.9945 -0.56003,-2.53645 -1.036,-5.23927 -1.50813,-7.99168 -0.94426,-5.50483 -1.86991,-11.21228 -3.39681,-16.19477 -0.76345,-2.49123 -1.67628,-4.80068 -2.81894,-6.81476 -1.14265,-2.01408 -2.51558,-3.73295 -4.19316,-5.03885 -1.67756,-1.30589 -3.66081,-2.19857 -6.02899,-2.56524 -2.36818,-0.36665 -5.1225,-0.20458 -8.337,0.59904 -6.42899,1.60723 -15.02501,3.3731 -24.58815,4.94017 -9.56314,1.56707 -20.09114,2.93498 -30.37753,3.73861 -5.1432,0.40181 -10.22693,0.66112 -15.09891,0.73646 -4.87198,0.0754 -9.53453,-0.0355 -13.83392,-0.37705 -4.29939,-0.34153 -8.23436,-0.913 -11.65981,-1.76182 -3.42546,-0.84884 -6.34055,-1.97497 -8.5907,-3.42149 -2.25015,-1.44653 -4.8796,-3.63501 -7.74503,-6.4025 -2.86541,-2.76749 -5.96659,-6.11285 -9.15096,-9.8698 -3.18436,-3.75694 -6.454925,-7.92496 -9.661891,-12.33987 -2.31637,-3.18887 -4.510509,-6.59935 -6.705537,-9.98255 z"
         id="path4228"
         inkscape:connector-curvature="0" />
      <path
         style="color:#000000;clip-rule:nonzero;display:inline;overflow:visible;visibility:visible;opacity:1;isolation:auto;mix-blend-mode:normal;color-interpolation:sRGB;color-interpolation-filters:linearRGB;solid-color:#000000;solid-opacity:1;fill:#88a82b;fill-opacity:1;fill-rule:nonzero;stroke:none;stroke-width:0.5;stroke-linecap:round;stroke-linejoin:miter;stroke-miterlimit:10;stroke-dasharray:none;stroke-dashoffset:0;stroke-opacity:1;color-rendering:auto;image-rendering:auto;shape-rendering:auto;text-rendering:auto;enable-background:accumulate"
         d="m 143.48928,398.61768 c -9.96095,13.11296 -17.90691,37.73268 -27.96383,63.50353 -5.85603,15.00607 -4.38574,25.65962 0.81397,34.16899 -2.95482,-1.79268 -6.16908,-3.37891 -9.81693,-4.59487 -27.706147,-9.23537 -23.375448,20.91617 -21.251237,50.43778 1.491598,-1.43458 2.986042,-2.88417 4.538483,-3.9888 2.089424,-1.48671 4.216518,-2.64336 6.346123,-3.3792 2.129606,-0.7358 4.260221,-1.05062 6.349651,-0.85977 2.08942,0.19086 4.13763,0.88781 6.10652,2.18115 1.96887,1.29333 3.85931,3.18255 5.62729,5.75415 3.53594,5.1432 7.39361,9.96652 11.45191,14.30608 4.05831,4.33959 8.31744,8.19515 12.65702,11.40963 2.16979,1.60726 4.35912,3.05432 6.55401,4.32002 2.19491,1.26571 4.39234,2.35075 6.58222,3.23473 2.18987,0.88398 4.37111,1.56755 6.52583,2.02963 2.15472,0.46209 4.28489,0.70121 6.37431,0.70121 4.17885,0 8.67753,0.72423 13.09747,1.56803 4.41993,0.84382 8.76086,1.80821 12.61825,2.2904 1.9287,0.24108 3.73621,0.36075 5.3736,0.28541 1.63738,-0.0754 3.10611,-0.34552 4.35172,-0.88797 1.24562,-0.54244 2.26992,-1.35567 3.02332,-2.5159 0.75339,-1.16023 1.23464,-2.66615 1.39536,-4.59487 0.32145,-3.85738 0.0809,-9.24395 -0.8633,-15.53231 -0.47212,-3.14418 -1.12138,-6.51351 -1.96268,-10.03189 -0.8413,-3.51836 -1.87635,-7.1865 -3.12197,-10.92335 -1.24561,-3.73687 -2.70187,-7.54305 -4.38696,-11.34269 -1.68511,-3.79964 -3.59793,-7.59015 -5.75767,-11.29687 -2.15974,-3.70673 -4.56455,-7.32786 -7.23409,-10.78596 -2.66954,-3.45809 -5.60524,-6.75257 -8.81974,-9.80637 -1.60725,-1.52688 -3.18478,-3.3109 -4.72171,-5.31369 -1.53694,-2.00278 -3.03205,-4.22567 -4.47858,-6.63153 -2.89305,-4.81171 -5.58433,-10.35576 -7.9952,-16.34276 -2.41088,-5.98702 -4.54292,-12.41641 -6.31089,-18.9961 -1.76798,-6.57967 -3.17244,-13.31195 -4.13678,-19.90167 -0.96436,-6.58971 -1.48699,-13.03884 -1.48699,-19.05599 0,-3.00856 0.13046,-5.90852 0.40169,-8.66468 0.0259,-0.26285 0.0914,-0.48333 0.11981,-0.7435 z m -10.55339,113.91661 c 16.1184,11.18338 36.5524,20.19524 43.02045,38.3058 12.858,36.00239 -6.42736,12.85766 -20.57117,-1.28613 -8.47304,-8.47306 -13.34273,-23.82562 -22.44928,-37.01967 z"
         id="path4230"
         inkscape:connector-curvature="0" />
      <path
         style="color:#000000;clip-rule:nonzero;display:inline;overflow:visible;visibility:visible;opacity:1;isolation:auto;mix-blend-mode:normal;color-interpolation:sRGB;color-interpolation-filters:linearRGB;solid-color:#000000;solid-opacity:1;fill:#688020;fill-opacity:1;fill-rule:nonzero;stroke:none;stroke-width:0.5;stroke-linecap:round;stroke-linejoin:miter;stroke-miterlimit:10;stroke-dasharray:none;stroke-dashoffset:0;stroke-opacity:1;color-rendering:auto;image-rendering:auto;shape-rendering:auto;text-rendering:auto;enable-background:accumulate"
         d="m 143.48928,398.61768 c -0.0284,0.26017 -0.094,0.48065 -0.11981,0.7435 -0.27123,2.75616 -0.4017,5.65612 -0.4017,8.66468 0,6.01715 0.52264,12.46628 1.48699,19.05599 0.96434,6.58972 2.3688,13.322 4.13678,19.90167 1.76797,6.57969 3.90001,13.00908 6.31089,18.9961 2.41087,5.987 5.10215,11.53105 7.9952,16.34276 1.44653,2.40586 2.94164,4.62875 4.47858,6.63153 1.53693,2.00279 3.11446,3.78681 4.72171,5.31369 3.21451,3.0538 6.1502,6.34828 8.81974,9.80637 2.66954,3.4581 5.07434,7.07923 7.23409,10.78596 2.15974,3.70672 4.07257,7.49723 5.75767,11.29687 1.6851,3.79964 3.14134,7.60582 4.38696,11.34269 1.24563,3.73685 2.28068,7.40499 3.12198,10.92335 0.84129,3.51838 1.49055,6.88771 1.96267,10.03189 0.94427,6.28836 1.18476,11.67493 0.8633,15.53231 -0.16072,1.92872 -0.64197,3.43464 -1.39536,4.59487 -0.7534,1.16023 -1.77769,1.97346 -3.02331,2.5159 -1.24562,0.54245 -2.71435,0.81263 -4.35173,0.88797 -1.63739,0.0754 -3.4449,-0.0443 -5.37359,-0.28541 -3.8574,-0.48219 -8.19832,-1.44658 -12.61825,-2.2904 -4.41994,-0.8438 -8.91863,-1.56803 -13.09747,-1.56803 -2.08943,0 -4.2196,-0.23912 -6.37432,-0.70121 -2.15471,-0.46208 -4.33595,-1.14565 -6.52583,-2.02963 -2.18988,-0.88398 -4.38731,-1.96902 -6.58221,-3.23473 -2.19489,-1.2657 -4.38423,-2.71276 -6.55402,-4.32002 -4.33958,-3.21448 -8.59871,-7.07004 -12.65702,-11.40963 -4.0583,-4.33956 -7.91596,-9.16288 -11.4519,-14.30608 -1.76799,-2.5716 -3.65843,-4.46082 -5.6273,-5.75415 -1.96888,-1.29334 -4.01709,-1.99029 -6.10652,-2.18115 -2.08942,-0.19085 -4.220042,0.12395 -6.349648,0.85977 -2.129605,0.73584 -4.256699,1.89249 -6.346124,3.3792 -1.552441,1.10463 -3.046885,2.55422 -4.538482,3.9888 0.241743,3.35965 0.548689,6.70869 0.680067,9.99312 1.2858,32.14501 23.142157,32.14424 45.000757,37.28745 21.85858,5.14319 25.71849,-7.71446 63.00668,1.28613 37.2882,9.0006 10.28674,21.85988 1.28614,45.00427 -9.00059,23.14441 -27.00463,-6.4294 -64.29282,-28.288 -30.955708,-18.14644 -35.600825,-8.94442 -43.549005,12.83672 2.195028,3.3832 4.389167,6.79368 6.705537,9.98255 3.206967,4.41491 6.477528,8.58293 9.661898,12.33987 3.18436,3.75695 6.28554,7.10231 9.15096,9.8698 2.86542,2.76749 5.49488,4.95597 7.74502,6.4025 2.25015,1.44652 5.16524,2.57265 8.59069,3.42149 3.42547,0.84882 7.36043,1.42029 11.65982,1.76182 4.2994,0.34154 8.96195,0.45238 13.83392,0.37705 4.87198,-0.0754 9.95571,-0.33465 15.09892,-0.73646 10.28639,-0.80363 20.81439,-2.17154 30.37752,-3.73861 9.56314,-1.56707 18.15915,-3.33294 24.58815,-4.94017 3.2145,-0.80362 5.96882,-0.96569 8.337,-0.59904 2.36818,0.36667 4.35144,1.25935 6.029,2.56524 1.67758,1.3059 3.05051,3.02477 4.19316,5.03885 1.14266,2.01408 2.05549,4.32353 2.81894,6.81476 1.5269,4.98249 2.45255,10.68994 3.39681,16.19477 0.47213,2.75241 0.9481,5.45523 1.50813,7.99168 0.56003,2.53645 1.20134,4.90506 2.00497,6.9945 0.80363,2.08941 1.20565,4.2802 1.23327,6.53286 0.0276,2.25266 -0.31815,4.56934 -1.01127,6.90991 -0.69314,2.34056 -1.73162,4.70479 -3.09028,7.05791 -1.35862,2.35311 -3.03824,4.69358 -5.00713,6.98391 -1.96886,2.29032 -4.22746,4.52865 -6.75133,6.68088 -2.5239,2.15221 -5.31337,4.21709 -8.337,6.15583 -3.02364,1.93875 -6.28185,3.75184 -9.75,5.40178 -3.46814,1.64995 -7.14348,3.1364 -11.00088,4.42221 -1.92869,0.6429 -3.93018,1.13149 -5.98318,1.47994 -2.05301,0.34845 -4.15917,0.55693 -6.30385,0.64482 -4.28934,0.17572 -8.72896,-0.13331 -13.18908,-0.79635 -4.46012,-0.66298 -8.93918,-1.67999 -13.30889,-2.91055 -4.36971,-1.23055 -8.63185,-2.67684 -12.64997,-4.20371 -4.57008,-1.73665 -7.71533,-3.39603 -11.46953,-5.14103 4.0219,11.41486 10.0142,25.40308 15.32795,41.78715 15.42959,47.57464 51.43353,-14.14203 86.15014,-33.42903 9.80496,-5.4472 17.15795,-6.98454 22.9426,-6.69848 0.46414,-4.51573 0.83024,-9.24073 1.68783,-12.67111 0.62282,-2.49123 1.45643,-4.63948 2.65685,-6.36728 0.60021,-0.86388 1.29005,-1.6228 2.09306,-2.26572 0.803,-0.64289 1.71782,-1.16973 2.76256,-1.57155 2.08942,-0.80362 4.48199,-1.38574 7.15655,-1.80763 2.67457,-0.42191 5.63044,-0.68495 8.85499,-0.84568 6.44909,-0.32146 13.96541,-0.23961 22.40346,-0.23961 8.43807,-1e-5 17.80045,-0.0793 27.94622,-0.72236 5.07287,-0.32144 10.34247,-0.78523 15.78954,-1.44822 5.44708,-0.66299 11.07112,-1.52825 16.85722,-2.65332 2.89304,-0.56254 5.50366,-1.38868 7.85426,-2.45599 0.37514,-0.17032 0.64232,-0.43779 1.00425,-0.62017 -5.98078,-8.17334 -11.84918,-17.36385 -16.57534,-29.06674 -27.00179,-66.86158 -25.71293,2.57248 -55.28632,16.7163 -29.57341,14.14379 -21.86037,-3.86066 -33.43256,-25.71926 -11.5722,-21.8586 52.71662,-3.85733 75.86103,-39.85972 20.08006,-31.23567 -8.9805,-31.56863 -49.578,-32.77012 -1.02634,1.39188 -2.0716,2.6229 -3.07968,4.22137 -3.63642,5.766 -7.21113,12.71986 -11.14888,19.71139 -1.96889,3.49577 -4.02743,7.00098 -6.22986,10.37368 -2.20243,3.37271 -4.54814,6.61043 -7.08961,9.5738 -2.54147,2.96337 -5.28055,5.65348 -8.26653,7.9212 -2.98596,2.26774 -6.21755,4.11598 -9.75351,5.40178 -3.53595,1.28581 -6.67047,1.94639 -9.46808,2.08954 -2.79763,0.14307 -5.25916,-0.23181 -7.44904,-1.02538 -2.18987,-0.79359 -4.10837,-2.00635 -5.8211,-3.53071 -1.71271,-1.52439 -3.22164,-3.3596 -4.58782,-5.40884 -1.36616,-2.04925 -2.59195,-4.30918 -3.74213,-6.67735 -1.15019,-2.36819 -2.22278,-4.84451 -3.28759,-7.3257 -2.1296,-4.9624 -4.2185,-9.94753 -6.7901,-14.12639 -0.6429,-1.04471 -1.08018,-2.19006 -1.33194,-3.42499 -0.25176,-1.23495 -0.31994,-2.55678 -0.222,-3.96062 0.19588,-2.80766 1.05003,-5.93324 2.39609,-9.28837 1.34608,-3.35513 3.18417,-6.94136 5.34894,-10.6732 2.16476,-3.73183 4.65612,-7.60929 7.30808,-11.54705 5.30392,-7.87551 11.25168,-15.99385 16.51543,-23.66847 2.63188,-3.8373 5.09189,-7.56158 7.21646,-11.09251 2.12459,-3.53092 3.91162,-6.86533 5.19742,-9.91911 1.28581,-3.05377 2.2112,-6.25027 2.81893,-9.55267 0.60776,-3.30239 0.89959,-6.71177 0.91969,-10.19749 0.02,-3.48572 -0.23111,-7.04829 -0.70826,-10.65206 -0.47715,-3.60374 -1.18089,-7.24924 -2.06487,-10.90573 -1.76798,-7.31299 -4.25789,-14.66524 -7.11077,-21.7974 -1.49467,-3.73672 -3.22145,-7.14822 -4.86265,-10.72605 -5.1139,-1.2321 -10.2906,-2.43211 -15.99393,-3.3193 -11.31548,-1.76019 -17.84939,-0.49934 -21.21601,2.80485 -4.25241,-13.95761 -17.17675,-52.59456 -34.39611,-73.83178 -12.05438,-14.86705 -17.28865,1.84932 -25.16795,2.99198 -5.00883,0.72637 -9.35615,4.34719 -13.40402,9.67599 z m 76.06892,89.49056 c 8.90029,19.9769 24.54587,44.92492 24.54587,61.44572 0,33.43078 -7.71521,19.28684 -28.28801,12.85785 -20.5728,-6.42901 -3.85706,-36.00035 1.28615,-59.14474 1.09044,-4.90702 1.96437,-9.92791 2.45599,-15.15883 z"
         id="path4232"
         inkscape:connector-curvature="0"
         sodipodi:nodetypes="ccssssssssssssssssccsssssssssssscssssscsssssscssssssssssssssssssscssscsscssssssssssccssssccssssscssssssssssssssscssscscssccsssc" />
    </g>
    <path
       style="color:#000000;clip-rule:nonzero;display:inline;overflow:visible;visibility:visible;opacity:1;isolation:auto;mix-blend-mode:normal;color-interpolation:sRGB;color-interpolation-filters:linearRGB;solid-color:#000000;solid-opacity:1;fill:#aa4400;fill-opacity:1;fill-rule:nonzero;stroke:none;stroke-width:0.5;stroke-linecap:round;stroke-linejoin:miter;stroke-miterlimit:10;stroke-dasharray:none;stroke-dashoffset:0;stroke-opacity:1;color-rendering:auto;image-rendering:auto;shape-rendering:auto;text-rendering:auto;enable-background:accumulate"
       d="m 446.123,683.6149 -3.7386,0 c 0,0 -47.02137,77.75106 -43.40454,114.88562 3.61685,37.13456 -50.63439,185.674 -68.71854,250.65958 1.69536,-24.6278 -73.14303,-24.8127 -79.04996,1.7054 l 93.7084,1.4659 c 0.40775,-1.8077 19.07897,-84.58238 19.71492,-87.12619 0.64291,-2.57159 30.2177,-101.57843 32.1464,-108.00744 0.96436,-3.21449 2.73188,-17.51782 4.09805,-31.42055 0.68307,-6.95135 1.26471,-13.80191 1.5962,-19.11589 0.33151,-5.31397 0.41308,-9.09081 0.0916,-9.89444 -0.32145,-0.80363 -0.12118,-3.41588 0.39113,-7.0121 0.51231,-3.59622 1.33803,-8.17639 2.2622,-12.91777 1.84833,-9.48277 4.09916,-19.60942 5.0635,-23.78828 0.48218,-2.08942 2.04683,-5.7855 4.12623,-10.15519 2.07936,-4.36973 4.67094,-9.41178 7.20236,-14.19335 5.06283,-9.56314 9.88389,-18.08346 9.88389,-18.08346 l 14.62674,-27.00184 z"
       id="path4237"
       inkscape:connector-curvature="0" />
    <path
       style="color:#000000;clip-rule:nonzero;display:inline;overflow:visible;visibility:visible;opacity:1;isolation:auto;mix-blend-mode:normal;color-interpolation:sRGB;color-interpolation-filters:linearRGB;solid-color:#000000;solid-opacity:1;fill:#f46300;fill-opacity:1;fill-rule:nonzero;stroke:none;stroke-width:0.5;stroke-linecap:round;stroke-linejoin:miter;stroke-miterlimit:10;stroke-dasharray:none;stroke-dashoffset:0;stroke-opacity:1;color-rendering:auto;image-rendering:auto;shape-rendering:auto;text-rendering:auto;enable-background:accumulate"
       d="m 446.123,683.6149 -14.62674,27.00184 c 0,0 -4.82106,8.52032 -9.88389,18.08346 -2.53142,4.78157 -5.123,9.82362 -7.20236,14.19335 -2.07939,4.36969 -3.64405,8.06577 -4.12623,10.15519 -0.96434,4.17886 -3.21517,14.30551 -5.0635,23.78828 -0.92417,4.74138 -1.74989,9.32155 -2.2622,12.91777 -0.51231,3.59622 -0.71258,6.20847 -0.39113,7.0121 0.32146,0.80363 0.23989,4.58047 -0.0916,9.89444 -0.33149,5.31398 -0.91313,12.16454 -1.5962,19.11589 -1.36617,13.90273 -3.13369,28.20606 -4.09804,31.42055 -1.92871,6.42901 -31.5035,105.43585 -32.14641,108.00744 -0.63595,2.54381 -19.30717,85.31849 -19.71492,87.12619 l 19.70083,0.31 c 0,0 5.42728,-83.55331 19.89461,-132.29247 14.46735,-48.73912 27.12673,-87.03359 23.50991,-126.48907 -3.61682,-39.45547 43.40453,-110.24496 43.40453,-110.24496 l -5.30664,0 z"
       id="path4199"
       inkscape:connector-curvature="0" />
    <path
       style="color:#000000;clip-rule:nonzero;display:inline;overflow:visible;visibility:visible;opacity:1;isolation:auto;mix-blend-mode:normal;color-interpolation:sRGB;color-interpolation-filters:linearRGB;solid-color:#000000;solid-opacity:1;fill:#aa4400;fill-opacity:1;fill-rule:nonzero;stroke:none;stroke-width:0.5;stroke-linecap:round;stroke-linejoin:miter;stroke-miterlimit:10;stroke-dasharray:none;stroke-dashoffset:0;stroke-opacity:1;color-rendering:auto;image-rendering:auto;shape-rendering:auto;text-rendering:auto;enable-background:accumulate"
       d="m 277.39221,1050.6224 c 0.4284,1.1424 1.35261,3.5659 1.73717,4.5913 -0.0472,-1.6096 0.16096,-3.0761 0.36998,-4.5384 l -2.10715,-0.053 z"
       id="path4197"
       inkscape:connector-curvature="0" />
    <path
       style="color:#000000;clip-rule:nonzero;display:inline;overflow:visible;visibility:visible;opacity:1;isolation:auto;mix-blend-mode:normal;color-interpolation:sRGB;color-interpolation-filters:linearRGB;solid-color:#000000;solid-opacity:1;fill:#aa4400;fill-opacity:1;fill-rule:nonzero;stroke:none;stroke-width:0.5;stroke-linecap:round;stroke-linejoin:miter;stroke-miterlimit:10;stroke-dasharray:none;stroke-dashoffset:0;stroke-opacity:1;color-rendering:auto;image-rendering:auto;shape-rendering:auto;text-rendering:auto;enable-background:accumulate"
       d="m 91.96276,576.44608 -3.129016,0.44751 c 0,0 25.714496,168.4417 74.574886,248.16128 48.86038,79.71959 91.29117,225.01433 91.29117,225.01433 l 11.51886,0.2819 c -1.15442,-3.0394 -8.03155,-21.1268 -16.65989,-44.4828 -4.66103,-12.61689 -9.486,-25.83335 -13.46393,-37.10419 -3.97795,-11.27083 -7.11111,-20.59446 -8.3969,-25.41621 -0.6429,-2.41089 -2.26897,-6.64849 -4.63715,-12.24122 -2.36819,-5.59272 -5.47775,-12.5415 -9.08402,-20.3668 -7.21253,-15.65059 -16.41412,-34.81549 -25.65581,-53.70068 -18.48338,-37.77036 -37.12796,-74.41767 -40.34247,-79.56087 -0.80363,-1.2858 -2.29127,-5.42273 -4.27773,-11.68096 -1.98646,-6.25823 -4.47021,-14.63735 -7.27285,-24.40139 -5.60528,-19.52809 -12.47751,-44.60117 -19.1476,-69.35282 C 104.22967,623.6143 92.489729,578.47205 91.96276,576.44608 Z"
       id="path4195"
       inkscape:connector-curvature="0" />
    <path
       style="color:#000000;clip-rule:nonzero;display:inline;overflow:visible;visibility:visible;opacity:1;isolation:auto;mix-blend-mode:normal;color-interpolation:sRGB;color-interpolation-filters:linearRGB;solid-color:#000000;solid-opacity:1;fill:#f46300;fill-opacity:1;fill-rule:nonzero;stroke:none;stroke-width:0.5;stroke-linecap:round;stroke-linejoin:miter;stroke-miterlimit:10;stroke-dasharray:none;stroke-dashoffset:0;stroke-opacity:1;color-rendering:auto;image-rendering:auto;shape-rendering:auto;text-rendering:auto;enable-background:accumulate"
       d="m 91.96276,576.44608 c 0.526969,2.02597 12.26691,47.16822 25.31755,95.59708 6.67009,24.75165 13.54232,49.82473 19.1476,69.35282 2.80264,9.76404 5.28639,18.14316 7.27285,24.40139 1.98646,6.25823 3.4741,10.39516 4.27773,11.68096 3.21451,5.1432 21.85909,41.79051 40.34247,79.56087 9.24169,18.88519 18.44328,38.05009 25.65581,53.70068 3.60627,7.8253 6.71583,14.77408 9.08402,20.3668 2.36818,5.59273 3.99425,9.83033 4.63715,12.24122 1.28579,4.82175 4.41895,14.14538 8.3969,25.41621 3.97793,11.27084 8.8029,24.4873 13.46393,37.10419 8.62834,23.356 15.50547,41.4434 16.65989,44.4828 l 11.17355,0.2713 C 260.63159,1005.9274 211.50115,875.26983 181.41105,827.62715 150.55186,778.76676 97.83319,575.60745 97.83319,575.60745 l -5.87043,0.83863 z"
       id="path4186"
       inkscape:connector-curvature="0" />
  </g>
</svg>
